<svg xmlns="http://www.w3.org/2000/svg" width="344.755" height="48.198" viewBox="0 0 344.755 48.198"><defs><style>.a,.b,.d{fill:none;}.a,.b,.e{stroke:#231f20;stroke-miterlimit:10;}.a,.e{stroke-width:2px;}.b{stroke-width:3px;}.c,.e{fill:#231f20;}</style></defs><g transform="translate(0.015 0.008)"><path class="a" d="M1.03,12.38C.98,11.86.86,5.13,2.66,3.09A7.442,7.442,0,0,1,6.1.95"/><path class="b" d="M97.2,9.42c.56.02,7.78-.17,9.88-1.94"/><path class="c" d="M22.07,32.14V25.28H16.14V9.42a2.283,2.283,0,0,1,.29-1.19.841.841,0,0,1,.72-.5c.28,0,.49.17.69.5a2.354,2.354,0,0,1,.28,1.19V21.95h3.94V12.31a2.38,2.38,0,0,1,.28-1.19.846.846,0,0,1,.7-.5.821.821,0,0,1,.69.5,2.357,2.357,0,0,1,.29,1.19v9.64a.814.814,0,0,1,.69.48,2.584,2.584,0,0,1,0,2.34.814.814,0,0,1-.69.48v6.9a2.356,2.356,0,0,1-.29,1.17.839.839,0,0,1-.69.48.853.853,0,0,1-.7-.48,2.253,2.253,0,0,1-.28-1.17Z"/><path class="c" d="M35.28,26.72l-3.23,6.42c-.21.46-.47.69-.79.69a.8.8,0,0,1-.7-.49,2.475,2.475,0,0,1-.28-1.2,2.173,2.173,0,0,1,.19-1l3.54-7.07-3.27-6.5a2.08,2.08,0,0,1-.22-.98,2.4,2.4,0,0,1,.27-1.17.8.8,0,0,1,.7-.52.928.928,0,0,1,.8.61l2.98,5.99,3.05-6.03c.19-.38.42-.57.7-.57a.851.851,0,0,1,.68.44,1.958,1.958,0,0,1,.3,1.13,2.137,2.137,0,0,1-.13.92l-3.33,6.7,3.49,7.04a1.883,1.883,0,0,1,.2.93,2.386,2.386,0,0,1-.29,1.25.825.825,0,0,1-.68.5c-.3,0-.58-.23-.8-.69L35.27,26.7Z"/><path class="c" d="M59.16,32.18V7.77h6.99a2.492,2.492,0,0,1,2.08,1.47,6.769,6.769,0,0,1,.87,3.51v6.17a6.67,6.67,0,0,1-.87,3.49,2.462,2.462,0,0,1-2.08,1.45H61.14v8.31a2.253,2.253,0,0,1-.28,1.17.814.814,0,0,1-.69.48.855.855,0,0,1-.72-.48,2.163,2.163,0,0,1-.29-1.17Zm1.99-11.6h5.01a.813.813,0,0,0,.68-.48,2.163,2.163,0,0,0,.29-1.17V12.76a2.163,2.163,0,0,0-.29-1.17.813.813,0,0,0-.68-.48H61.15v9.47Z"/><path class="c" d="M74.58,30.49h3.03V11.07H74.62a.814.814,0,0,1-.69-.48,2.253,2.253,0,0,1-.28-1.17,2.253,2.253,0,0,1,.28-1.17.814.814,0,0,1,.69-.48h4.95V30.49h1.97V23.63a2.174,2.174,0,0,1,.29-1.16.733.733,0,0,1,1.38-.01,2.163,2.163,0,0,1,.29,1.17v8.51a2.163,2.163,0,0,1-.29,1.17.814.814,0,0,1-.69.48H74.57a.846.846,0,0,1-.7-.5,2.354,2.354,0,0,1-.28-1.19,2.142,2.142,0,0,1,.28-1.14.848.848,0,0,1,.7-.47Z"/><path class="c" d="M97.33,11.07H92.38v8.06h3.96a1.66,1.66,0,0,1,1.39.98,4.429,4.429,0,0,1,.58,2.31V41.37a4.391,4.391,0,0,1-.58,2.32,1.667,1.667,0,0,1-1.39.97H91.78a2.272,2.272,0,0,1-1.3-.49L89,43.13a1.777,1.777,0,0,1-.6-1.57,2.252,2.252,0,0,1,.27-1.17.774.774,0,0,1,.65-.48,1.213,1.213,0,0,1,.68.29l1.3.92a.672.672,0,0,0,.47.24h4.56V22.41H90.38V7.77h6.94"/><path class="c" d="M111.64,33.83h-4.21a2.261,2.261,0,0,1-1.9-1.12l-1.91-2.78a5.808,5.808,0,0,1-.91-3.45V22.19a6.067,6.067,0,0,1,1.03-3.65l1.72-2.49a2.3,2.3,0,0,1,1.79-1.14h4.42a.84.84,0,0,1,.7.48,2.253,2.253,0,0,1,.28,1.17,2.291,2.291,0,0,1-.28,1.18.848.848,0,0,1-.7.47h-4.23a1,1,0,0,0-.77.53l-1.59,2.25a2.583,2.583,0,0,0-.38,1.47v4.02a1.871,1.871,0,0,0,.3,1.1l1.74,2.47a.983.983,0,0,0,.86.49h4.04a.839.839,0,0,1,.69.48,2.255,2.255,0,0,1,.29,1.17,2.163,2.163,0,0,1-.29,1.17.814.814,0,0,1-.69.48Z"/><path class="c" d="M123.63,32.14V25.28H117.7V9.42a2.283,2.283,0,0,1,.29-1.19.841.841,0,0,1,.72-.5c.28,0,.49.17.69.5a2.354,2.354,0,0,1,.28,1.19V21.95h3.94V12.31a2.38,2.38,0,0,1,.28-1.19.846.846,0,0,1,.7-.5.821.821,0,0,1,.69.5,2.357,2.357,0,0,1,.29,1.19v9.64a.814.814,0,0,1,.69.48,2.584,2.584,0,0,1,0,2.34.814.814,0,0,1-.69.48v6.9a2.356,2.356,0,0,1-.29,1.17.839.839,0,0,1-.69.48.853.853,0,0,1-.7-.48,2.253,2.253,0,0,1-.28-1.17Z"/><path class="c" d="M131.7,32.18V16.56a2.38,2.38,0,0,1,.28-1.19.735.735,0,0,1,1.39-.01,2.367,2.367,0,0,1,.28,1.2v2.06l1.61-2.29q.99-1.41,1.95-1.41h1.44a2.483,2.483,0,0,1,2.09,1.45,6.667,6.667,0,0,1,.86,3.49v.88a2.368,2.368,0,0,1-.28,1.2.808.808,0,0,1-.69.49.84.84,0,0,1-.7-.48,2.253,2.253,0,0,1-.28-1.17v-.92a2.253,2.253,0,0,0-.28-1.17.84.84,0,0,0-.7-.48H137.4c-.27,0-.58.24-.91.73L133.68,23v9.19a2.163,2.163,0,0,1-.29,1.17.813.813,0,0,1-.68.48.828.828,0,0,1-.7-.48,2.355,2.355,0,0,1-.28-1.17Z"/><path class="c" d="M146.21,32.18V16.56a2.38,2.38,0,0,1,.28-1.19.735.735,0,0,1,1.39-.01,2.367,2.367,0,0,1,.28,1.2v2.06l1.61-2.29q.99-1.41,1.95-1.41h1.44c.82,0,6.58-.03,7.16.93a6.643,6.643,0,0,1,.86,3.49v.88a2.368,2.368,0,0,1-.28,1.2.808.808,0,0,1-.69.49c-.27,0-5.57.36-5.77.04a2.253,2.253,0,0,1-.28-1.17v-.92a2.253,2.253,0,0,0-.28-1.17.84.84,0,0,0-.7-.48h-1.27c-.27,0-.58.24-.91.73L148.19,23v9.19a2.163,2.163,0,0,1-.29,1.17.813.813,0,0,1-.68.48.828.828,0,0,1-.7-.48,2.355,2.355,0,0,1-.28-1.17Z"/><path class="c" d="M179.19,18.01v-.84l-2.04-4.86V32.19a2.163,2.163,0,0,1-.29,1.17.733.733,0,0,1-1.38-.01,2.174,2.174,0,0,1-.29-1.16V7.77h2.56l2.42,5.9,2.5-5.9h2.49V39.41a2.163,2.163,0,0,1-.29,1.17.855.855,0,0,1-.72.48.784.784,0,0,1-.68-.49,2.174,2.174,0,0,1-.29-1.16V12.38l-2,4.7V18a2.174,2.174,0,0,1-.29,1.16.807.807,0,0,1-.68.49.8.8,0,0,1-.7-.49,2.37,2.37,0,0,1-.28-1.16Z"/><path class="c" d="M190.66,30.49h3.03V11.07H190.7a.814.814,0,0,1-.69-.48,2.253,2.253,0,0,1-.28-1.17,2.253,2.253,0,0,1,.28-1.17.814.814,0,0,1,.69-.48h4.95V30.49h1.97V23.63a2.174,2.174,0,0,1,.29-1.16.733.733,0,0,1,1.38-.01,2.163,2.163,0,0,1,.29,1.17v8.51a2.163,2.163,0,0,1-.29,1.17.814.814,0,0,1-.69.48h-7.95a.846.846,0,0,1-.7-.5,2.354,2.354,0,0,1-.28-1.19,2.142,2.142,0,0,1,.28-1.14.848.848,0,0,1,.7-.47Z"/><path class="c" d="M199.38,44.9h4.56l8.47-22.48h-5.95V7.77h6.94a.832.832,0,0,1,.69.49,2.265,2.265,0,0,1,.28,1.16,2.278,2.278,0,0,1-.28,1.17.814.814,0,0,1-.69.48h-4.95v8.06h3.96a1.66,1.66,0,0,1,1.39.98,4.429,4.429,0,0,1,.58,2.31L205.91,44.9a4.391,4.391,0,0,1-.58,2.32,1.647,1.647,0,0,1-1.39.97h-4.56a2.272,2.272,0,0,1-1.3-.49l-1.48-1.04a1.777,1.777,0,0,1-.6-1.57,2.252,2.252,0,0,1,.27-1.17.774.774,0,0,1,.65-.48,1.213,1.213,0,0,1,.68.29l1.3.92a.672.672,0,0,0,.47.24Z"/><path class="c" d="M225.68,33.83h-1.97a2.508,2.508,0,0,1-2.1-1.45,6.556,6.556,0,0,1-.88-3.49l3.86-10.68h-1.01c-.27,0-8.72-.41-8.91-.73a2.266,2.266,0,0,1-.28-1.18,2.229,2.229,0,0,1,.28-1.17c.19-.32,8.64-.23,8.91-.23h1.03V10.86a2.356,2.356,0,0,1,.29-1.17.8.8,0,0,1,.69-.48c.27,0,.48.16.68.49a2.178,2.178,0,0,1,.3,1.16V14.9h3.96a.832.832,0,0,1,.69.49,2.564,2.564,0,0,1,0,2.33.839.839,0,0,1-.69.48h-3.99l-3.86,10.68a2.174,2.174,0,0,0,.29,1.16.836.836,0,0,0,.72.49h1.91c.53,0,.87-.48,1.05-1.42s.5-1.42.99-1.42a.832.832,0,0,1,.72.48,2.435,2.435,0,0,1,.27,1.21,5.885,5.885,0,0,1-.84,2.97,2.465,2.465,0,0,1-2.13,1.48Z"/><path class="c" d="M243.19,11.07v6.17a6.756,6.756,0,0,1-.79,3.49,6.9,6.9,0,0,1,.82,3.33v6.43c0,.9-.08,13.2-.47,13.85a1.662,1.662,0,0,1-1.41.97h-6.96a.816.816,0,0,1-.7-.48c-.18-.32-.4-12.24-.4-12.69a2.278,2.278,0,0,1,.28-1.17.828.828,0,0,1,.7-.48h6.94V24.06a2.283,2.283,0,0,0-.29-1.19.821.821,0,0,0-.69-.5h-3.96a.821.821,0,0,1-.69-.47,2.242,2.242,0,0,1-.29-1.18,2.328,2.328,0,0,1,.29-1.17.8.8,0,0,1,.69-.48h3.99a.814.814,0,0,0,.69-.48,2.163,2.163,0,0,0,.29-1.17V11.05h-7.04a.84.84,0,0,1-.7-.48,2.253,2.253,0,0,1-.28-1.17,2.253,2.253,0,0,1,.28-1.17.84.84,0,0,1,.7-.48h7.04a1.649,1.649,0,0,1,1.4.97,4.509,4.509,0,0,1,.57,2.32Z"/><path class="c" d="M247.77,32.18V13.16a2.38,2.38,0,0,1,.28-1.19.735.735,0,0,1,1.39-.01,2.367,2.367,0,0,1,.28,1.2v5.45l1.61-5.69q.99-1.41,1.95-1.41h1.44a2.482,2.482,0,0,1,2.09,1.45c.58.96.86,7.48.86,8.83v.88a2.368,2.368,0,0,1-.28,1.2.808.808,0,0,1-.69.49.84.84,0,0,1-.7-.48,2.253,2.253,0,0,1-.28-1.17v-.92a16.236,16.236,0,0,0-.28-3.12.84.84,0,0,0-.7-.48h-1.27c-.27,0-.58.24-.91.73l-2.81,4.06v9.19a2.163,2.163,0,0,1-.29,1.17.813.813,0,0,1-.68.48.828.828,0,0,1-.7-.48,2.355,2.355,0,0,1-.28-1.17Z"/><path class="c" d="M278.8,15.13l2.49,17.34a3.251,3.251,0,0,1-.29,1.46q-.285.6-.69.6c-.27,0-.52-.2-.72-.6a3.392,3.392,0,0,1-.29-1.46l-2.49-17.34h-1c-.28,0-.52-.2-.7-.61a3.4,3.4,0,0,1-.28-1.44,3.511,3.511,0,0,1,.26-1.43c.18-.42.42-.62.73-.62h1.03V9.44c0-2.1,2.84-3.95,3.52-5.34s3.24-2.08,4.27-2.08h2.31c.27,0,.5.2.69.61a3.387,3.387,0,0,1,.29,1.49,3.517,3.517,0,0,1-.29,1.44c-.2.41-.43.61-.69.61h-2.31a1.373,1.373,0,0,0-1.17.88c-.3.59-4.64,1.45-4.64,2.38v1.59h1.98c.26-.02.49.18.68.59a3.325,3.325,0,0,1,.29,1.47,3.191,3.191,0,0,1-.29,1.44c-.19.41-.42.61-.68.61h-2Z"/><path class="c" d="M295.99,40.41l3.3-13.44V16.56a2.493,2.493,0,0,1,.29-1.19.791.791,0,0,1,.69-.5.846.846,0,0,1,.7.5,2.354,2.354,0,0,1,.28,1.19V42.1a2.174,2.174,0,0,1-.29,1.16.731.731,0,0,1-1.38,0,2.269,2.269,0,0,1-.29-1.16V40.81l-1.7,1.86a2.862,2.862,0,0,1-2.04,1.08h-.91a2.469,2.469,0,0,1-2.07-1.41c-.58-.94-.88-12.01-.93-13.37l-.29-12.41a2.113,2.113,0,0,1,.28-1.15.834.834,0,0,1,.7-.5.8.8,0,0,1,.68.49,2.376,2.376,0,0,1,.3,1.16l.26,12.17c.03,1.18.43,11.68,1.21,11.68h1.2Z"/><path class="c" d="M311.76,22.21v3.91l1.32,13.73.68-13.68.21-9.6a2.281,2.281,0,0,1,.32-1.16.794.794,0,0,1,.67-.49.853.853,0,0,1,.7.48,2.159,2.159,0,0,1,.27,1.17l-.21,10.25-1.05,15.74c-.15.8-.45,1.2-.91,1.2H312.7c-.37,0-.66-.3-.87-.91l-1.07-3.11-1.07,3.06c-.24.64-.53.96-.86.96h-1.04a.79.79,0,0,1-.61-.33,1.587,1.587,0,0,1-.35-.78L305.8,26.7l-.23-10.11a2.21,2.21,0,0,1,.29-1.15.873.873,0,0,1,.72-.5.792.792,0,0,1,.66.46,2.324,2.324,0,0,1,.3,1.19l.22,9.64.64,13.6,1.38-13.79v-3.8a2.127,2.127,0,0,1,.29-1.16.832.832,0,0,1,.72-.48.813.813,0,0,1,.68.48,2.15,2.15,0,0,1,.29,1.16Z"/><path class="c" d="M326.76,42.33V35.47h-5.93V9.42a2.283,2.283,0,0,1,.29-1.19.841.841,0,0,1,.72-.5c.28,0,.49.17.69.5a2.354,2.354,0,0,1,.28,1.19V21.95h3.94V12.31a2.38,2.38,0,0,1,.28-1.19.846.846,0,0,1,.7-.5.821.821,0,0,1,.69.5,2.357,2.357,0,0,1,.29,1.19v9.64a.814.814,0,0,1,.69.48c.19.32.28,10.9.28,11.36a2.253,2.253,0,0,1-.28,1.17.814.814,0,0,1-.69.48v6.9a2.355,2.355,0,0,1-.29,1.17.839.839,0,0,1-.69.48.853.853,0,0,1-.7-.48,2.253,2.253,0,0,1-.28-1.17Z"/><path class="c" d="M336.82,31.94v7.29a2.368,2.368,0,0,1-.28,1.2.808.808,0,0,1-.69.49.86.86,0,0,1-.72-.49,2.271,2.271,0,0,1-.29-1.2V15.75a2.174,2.174,0,0,1,.29-1.16.752.752,0,0,1,1.41,0,2.265,2.265,0,0,1,.28,1.16v1.06c.96-1.78,1.9-2.67,2.83-2.67h.46a2.414,2.414,0,0,1,1.92,1.29l1.64,2.37a6.844,6.844,0,0,1,1.07,3.98v5.14a6.977,6.977,0,0,1-1.16,4.1l-1.61,2.31a2.354,2.354,0,0,1-2.02,1.22h-.43a2.311,2.311,0,0,1-1.95-1.33l-.77-1.27Zm2.79-.73h.5c.24,0,.49-.2.77-.61l1.54-2.25a2.229,2.229,0,0,0,.39-1.39V21.65a2.408,2.408,0,0,0-.43-1.39l-1.65-2.37a.782.782,0,0,0-.61-.41h-.58c-.22,0-.5.3-.85.9l-1.47,2.43a2.86,2.86,0,0,0-.39,1.45v4.21a2.886,2.886,0,0,0,.44,1.49l1.42,2.37c.35.59.65.88.93.88Z"/><path class="d" d="M35.1,24.81q4.47,8.085,8.94,16.18"/><path class="a" d="M38.34,18.03c.2-.49,3.14-6.63,5.7-7.77a7.848,7.848,0,0,1,4.08-.58"/><path class="b" d="M110.99,32.21c.5-.09,6.92-.34,8.86,3.24a21.615,21.615,0,0,1,2.04,6.84"/><line class="e" y1="8.89" transform="translate(132.7 8.13)"/><line class="e" y1="8.88" transform="translate(147.18 32.13)"/><path class="c" d="M7.04,20.11V31.05l.68,1.6h.97l.71-1.64V11.62a2.029,2.029,0,0,1,.35-1.18,1.037,1.037,0,0,1,.84-.5.994.994,0,0,1,.82.49,2.031,2.031,0,0,1,.35,1.15V31.53a2.8,2.8,0,0,1-.3,1.04l-1.08,2.52c-.22.56-.56.84-1,.84H7.2c-.69,0-1.14-.45-1.33-1.33-.22.89-.64,1.33-1.28,1.33H2.54a1.331,1.331,0,0,1-1.28-.92L.27,32.64A2.787,2.787,0,0,1,0,31.52V11.62a1.959,1.959,0,0,1,.35-1.18,1.037,1.037,0,0,1,.84-.5.973.973,0,0,1,.79.5,2.093,2.093,0,0,1,.33,1.18V31.09l.68,1.57h.99l.73-1.64V20.12a1.983,1.983,0,0,1,.33-1.16,1.022,1.022,0,0,1,.83-.48.992.992,0,0,1,.82.48,1.933,1.933,0,0,1,.33,1.16Z"/></g></svg>